HIERARCHY
ROOT Hips
{
  OFFSET 1.44925e-005 102.336 -0.101585
  CHANNELS 6 Xposition Yposition Zposition Zrotation Xrotation Yrotation
  JOINT LeftUpLeg
  {
    OFFSET 8.9458 -8.66707 0.101652
    CHANNELS 3 Zrotation Xrotation Yrotation
    JOINT LeftLeg
    {
      OFFSET 0 -44.4227 1.3727
      CHANNELS 3 Zrotation Xrotation Yrotation
      JOINT LeftFoot
      {
        OFFSET -0.253549 -42.0924 -1.46059
        CHANNELS 3 Zrotation Xrotation Yrotation
        JOINT LeftToes
        {
          OFFSET -0.04 -4.41509 8.4991
          CHANNELS 3 Zrotation Xrotation Yrotation
          End Site
          {
            OFFSET 0.08 -0.047448 9.77979
          }
        }
      }
    }
  }
  JOINT Spine
  {
    OFFSET 0 11.8905 0
    CHANNELS 3 Zrotation Xrotation Yrotation
    JOINT Spine1
    {
      OFFSET 0 25.6574 0.127663
      CHANNELS 3 Zrotation Xrotation Yrotation
      JOINT RightShoulder
      {
        OFFSET -8.99 -0.362252 -0.22
        CHANNELS 3 Zrotation Xrotation Yrotation
        JOINT RightArm
        {
          OFFSET -10.2827 -0.00338 0.322123
          CHANNELS 3 Zrotation Xrotation Yrotation
          JOINT RightForeArm
          {
            OFFSET -26.364 0.099144 -1.42434
            CHANNELS 3 Zrotation Xrotation Yrotation
            JOINT RightHand
            {
              OFFSET -22.0324 0.085362 1.02216
              CHANNELS 3 Zrotation Xrotation Yrotation
              End Site
              {
                OFFSET -13.3284 -0.6 1.50291
              }
            }
          }
        }
      }
      JOINT LeftShoulder1
      {
        OFFSET 8.99 -0.362252 -0.22
        CHANNELS 3 Zrotation Xrotation Yrotation
        JOINT LeftArm
        {
          OFFSET 10.2827 -0.00337999 0.322123
          CHANNELS 3 Zrotation Xrotation Yrotation
          JOINT LeftForeArm
          {
            OFFSET 26.2597 0.099144 -1.42434
            CHANNELS 3 Zrotation Xrotation Yrotation
            JOINT LeftHand
            {
              OFFSET 22.0902 0.085362 1.02216
              CHANNELS 3 Zrotation Xrotation Yrotation
              End Site
              {
                OFFSET 13.419 -0.6 1.50291
              }
            }
          }
        }
      }
      JOINT Head
      {
        OFFSET 0 8.73416 0.011341
        CHANNELS 3 Zrotation Xrotation Yrotation
        End Site
        {
          OFFSET -0.29 12.7742 2.51395
        }
      }
    }
  }
  JOINT RightUpLeg
  {
    OFFSET -8.9458 -8.66707 0.101652
    CHANNELS 3 Zrotation Xrotation Yrotation
    JOINT RightLeg
    {
      OFFSET 0 -44.4227 1.3727
      CHANNELS 3 Zrotation Xrotation Yrotation
      JOINT RightFoot
      {
        OFFSET 0.253549 -42.0924 -1.46059
        CHANNELS 3 Zrotation Xrotation Yrotation
        JOINT RightToes
        {
          OFFSET 0.04 -4.41509 8.4991
          CHANNELS 3 Zrotation Xrotation Yrotation
          End Site
          {
            OFFSET -0.08 -0.137448 9.77979
          }
        }
      }
    }
  }
}
MOTION
Frames:	17
Frame Time:	0.0333333
74.7009 98.7707 2.20095 -9.42419 4.31754 -89.95 3.0976 -37.0172 -1.70215 176.208 77.8188 -160.489 -8.61146 -9.94296 -0.12787 -1.31817e-009 8.7524e-006 -1.4812e-008 21.6242 18.2498 1.35645 -11.9969 -5.28407 6.95439 16.8501 0.815171 -0.968643 56.7267 -21.3559 94.1792 11.1194 45.6732 -6.32885 -14.0667 9.03375 2.12997 -40.3455 3.17247 -3.29206 -14.6051 -18.5779 31.5336 -12.5839 48.3977 -1.33005 5.82328 9.61819 -0.917488 -0.172778 -4.13483 -16.0372 5.30511 -4.13938 -5.44859 3.31975 25.1756 -19.6103 0.401402 -17.2634 -0.201872 0.0462048 0.000530889 0.662642 
71.9462 99.1588 1.78423 -10.1041 3.28446 -89.9853 1.3747 -41.3219 -2.22559 176.57 76.1214 -160.074 -8.14805 -11.7177 -0.238961 -1.31817e-009 8.7524e-006 -1.4812e-008 20.8554 18.5579 2.26559 -12.8999 -5.15908 7.84446 14.315 0.589182 -1.75195 56.6274 -23.0613 98.4734 10.6683 44.6606 -6.93969 -12.2429 9.14916 2.17166 -38.219 2.96674 -3.17302 -9.91203 -17.1121 41.4018 -11.844 44.6533 -1.67996 5.82328 9.61819 -0.917488 0.309215 -4.09873 -17.7623 4.36888 -1.06095 -6.50761 3.13947 24.2964 -18.3667 0.702759 -18.2467 -0.176237 0.0462048 0.000530889 0.662642 
69.2391 99.4716 1.44756 -10.7143 2.59171 -90.4356 0.517805 -44.5703 -2.16527 176.467 76.1447 -159.273 -8.89337 -13.8916 -0.425414 -1.31817e-009 8.7524e-006 -1.4812e-008 20.0914 18.4745 3.23944 -13.4362 -4.34478 8.76016 12.4137 0.396729 -2.58192 55.8192 -24.4302 101.379 10.426 43.5256 -7.13941 -11.8846 9.18861 2.00751 -36.7715 2.83837 -3.10814 -6.30198 -15.0746 48.6461 -11.7221 42.047 -1.18154 5.82328 9.61819 -0.917488 0.362753 -4.17958 -18.9698 3.70274 1.7581 -7.16315 2.94829 23.629 -17.1084 1.20115 -19.0228 -0.125925 0.0462048 0.000530889 0.662642 
66.5858 99.6201 1.15895 -11.2939 2.00772 -90.8399 0.00221224 -46.7806 -1.91915 175.886 77.7879 -157.817 -9.94194 -15.4311 -0.609508 -1.31817e-009 8.7524e-006 -1.4812e-008 18.8284 18.1896 3.89643 -13.0607 -3.35728 9.15543 10.8026 0.265697 -3.23387 55.6683 -24.6248 103.392 10.1898 42.6637 -7.02073 -12.2057 9.18195 1.86122 -36.0208 2.78084 -3.09286 -4.81136 -12.7765 54.0095 -11.6391 40.3699 -1.29727 5.82328 9.61819 -0.917488 0.00996165 -4.42731 -19.0886 3.14854 4.43253 -7.63819 2.7463 23.1516 -16.0409 1.55845 -19.9538 -0.0829378 0.0462048 0.000530889 0.662642 
64.0009 99.6499 0.891957 -11.9426 1.50598 -90.8808 -0.702201 -47.7896 -1.98323 174.165 81.1195 -155.12 -10.059 -16.245 -0.68724 -1.31817e-009 8.7524e-006 -1.4812e-008 17.2665 17.9022 4.15857 -12.0914 -2.44465 9.02518 9.37308 0.187202 -3.68155 56.7057 -23.7671 104.403 9.71871 42.3722 -6.49419 -12.2853 9.16688 1.96472 -35.5555 2.75124 -3.09736 -5.00063 -11.3371 57.5171 -11.5054 40.1498 -1.74961 5.82328 9.61819 -0.917488 -0.465547 -4.57093 -18.4739 2.73836 7.26766 -8.1042 2.61053 22.4192 -15.2982 1.87463 -20.9386 -0.0374246 0.0462048 0.000530889 0.662642 
61.4736 99.6104 0.68655 -12.5115 1.25132 -90.7504 -1.2415 -47.5414 -2.163 166.496 86.0843 -147.157 -9.9026 -17.0986 -0.747343 -1.31817e-009 8.7524e-006 -1.4812e-008 16.0676 17.6073 4.18478 -11.1338 -1.62918 8.70854 8.42285 0.142949 -3.96879 57.9795 -22.4616 104.211 9.34166 42.6912 -5.90203 -12.447 9.13555 2.17446 -35.4338 2.74797 -3.10924 -5.87599 -11.2814 58.8718 -11.2551 41.2004 -2.02262 5.82328 9.61819 -0.917488 -0.915235 -4.47088 -17.6519 2.59845 9.98172 -8.47943 2.53081 21.6241 -14.7777 2.63911 -21.7814 0.0684175 0.0462048 0.000530889 0.662642 
58.9705 99.5075 0.581271 -12.7025 1.32707 -90.8014 -1.08853 -46.1091 -1.90188 16.6805 86.8851 1.89341 -10.2025 -18.1385 -0.862421 -1.31817e-009 8.7524e-006 -1.4812e-008 15.5128 17.0224 4.1254 -10.5512 -0.855258 8.41537 8.17211 0.136108 -4.01976 59.0706 -20.8301 102.939 9.40778 43.5357 -5.8423 -13.2663 9.06503 2.32882 -35.7289 2.77108 -3.11667 -7.01829 -12.5329 58.2083 -10.9552 42.3862 -2.05866 5.82328 9.61819 -0.917488 -1.23637 -4.3532 -16.692 2.68227 12.0937 -8.65172 2.46615 21.1411 -14.2284 3.48799 -22.3665 0.190691 0.0462048 0.000530889 0.662642 
56.4782 99.3747 0.551487 -12.3633 1.60539 -91.2788 -0.295682 -43.6319 -0.989004 4.14891 78.142 13.1574 -10.3036 -18.5239 -0.905983 -1.31817e-009 8.7524e-006 -1.4812e-008 15.3215 15.9856 4.07464 -10.4455 -0.208265 8.18161 8.55529 0.180171 -3.73482 60.746 -18.6982 100.509 9.71325 44.7516 -6.2356 -14.1789 8.99335 2.41851 -36.1177 2.7971 -3.11568 -8.56665 -14.7811 56.0221 -10.5989 42.5476 -2.10475 5.82328 9.61819 -0.917488 -1.24916 -4.24711 -15.4437 2.83748 13.5937 -8.57674 2.36466 20.68 -13.5241 3.78705 -22.8209 0.243156 0.0462048 0.000530889 0.662642 
53.936 99.1953 0.564847 -11.629 1.88358 -92.0628 0.563808 -40.3143 0.104641 2.13372 67.5316 14.3776 -9.94279 -17.6714 -0.798629 -1.31817e-009 8.7524e-006 -1.4812e-008 15.107 14.7337 4.02099 -10.5602 -0.00290388 7.90485 9.51709 0.273595 -3.16998 63.1053 -16.4127 96.421 9.99419 45.9394 -6.49079 -14.3623 8.99556 2.28983 -36.5041 2.82218 -3.1127 -10.534 -17.717 52.534 -10.2423 41.7058 -2.04553 5.82328 9.61819 -0.917488 -0.970602 -3.77108 -13.9063 2.94329 14.8147 -8.34601 2.1905 19.9693 -12.7201 4.20351 -23.5216 0.323696 0.0462048 0.000530889 0.662642 
51.2416 98.8506 0.655068 -10.7953 2.17757 -92.7887 1.02126 -36.2678 0.659165 1.4853 56.4078 15.6318 -10.2108 -16.47 -0.718221 -1.31817e-009 8.7524e-006 -1.4812e-008 14.8865 13.5072 3.85881 -10.5224 -0.265924 7.47009 11.375 0.421331 -2.4071 64.6412 -14.7366 90.6623 10.6743 46.7057 -6.80304 -14.1926 9.05738 1.8523 -37.1847 2.87121 -3.11828 -13.0322 -20.9591 47.3514 -10.1117 40.8828 -1.53383 5.82328 9.61819 -0.917488 -0.708638 -2.84656 -12.235 2.9619 15.8806 -8.20644 1.96983 19.6209 -11.7909 5.49647 -24.4797 0.551221 0.0462048 0.000530889 0.662642 
48.3545 98.3403 0.87702 -10.0642 2.56085 -93.5123 1.07726 -31.3498 0.562021 1.29705 46.0448 18.2954 -11.2928 -16.0043 -0.758921 -1.31817e-009 8.7524e-006 -1.4812e-008 14.8306 12.1228 3.65457 -10.3383 -0.327278 7.02947 14.6421 0.666011 -1.42805 64.1148 -14.1329 83.6352 12.3349 47.4871 -8.04364 -14.293 9.10015 1.42634 -38.013 2.93674 -3.1375 -16.5946 -24.1704 40.0507 -10.3362 40.8492 -0.625245 5.82328 9.61819 -0.917488 -0.669989 -1.88409 -10.536 2.88599 16.7865 -8.31327 1.58986 20.1006 -10.4723 6.78432 -25.282 0.791877 0.0462048 0.000530889 0.662642 
45.2499 97.8101 1.21189 -9.46978 2.85461 -94.5396 0.726005 -25.7625 0.288525 1.29885 37.1169 21.902 -11.0549 -15.3798 -0.684295 -1.31817e-009 8.7524e-006 -1.4812e-008 14.4309 10.3018 3.62111 -9.92796 0.316807 6.7274 19.3292 1.02717 -0.375306 62.0054 -14.6706 75.255 14.6971 49.0064 -10.1225 -14.0718 9.14971 1.10284 -38.3182 2.96538 -3.15425 -21.9141 -27.1921 30.6787 -10.7791 41.4987 0.457142 5.82328 9.61819 -0.917488 -0.782452 -0.950512 -8.77706 2.61603 17.7209 -8.43358 0.758949 20.974 -8.74879 7.82369 -26.0604 1.01299 0.0462048 0.000530889 0.662642 
41.9525 97.3291 1.56383 -9.06292 2.59299 -95.32 -0.420636 -20.906 0.0876396 1.33026 30.8961 24.5014 -7.56748 -13.1074 -0.314356 -1.31817e-009 8.7524e-006 -1.4812e-008 12.4055 8.34903 3.61312 -8.40136 1.02327 6.0982 24.6637 1.40309 0.339808 59.1101 -16.4349 65.2602 16.8646 50.7823 -11.9551 -13.1588 9.26092 0.538455 -37.9 2.93661 -3.15489 -29.2075 -29.7484 19.1752 -11.4634 43.0098 2.06768 5.82328 9.61819 -0.917488 -0.962553 0.275583 -7.007 1.95218 18.5339 -7.68421 -0.330461 22.6233 -7.78603 10.8019 -26.9608 1.60277 0.0462048 0.000530889 0.662642 
38.7359 96.9599 1.86382 -9.00875 1.54195 -94.6108 -2.49792 -18.2531 -0.2309 1.27154 28.8441 24.3614 -2.22069 -10.1699 -0.000759742 -1.31817e-009 8.7524e-006 -1.4812e-008 7.99918 7.20691 3.10443 -4.95262 0.850247 4.52014 29.6744 1.6483 0.503375 55.2622 -19.3125 53.2842 18.1287 51.3932 -12.9688 -12.6889 9.3671 -0.259922 -37.1709 2.87476 -3.12874 -38.0755 -30.7899 4.97275 -12.9105 46.2694 4.68645 5.82328 9.61819 -0.917488 -1.20432 1.39669 -5.52121 0.761304 17.9674 -5.58132 -0.815653 27.6626 -8.80341 16.0792 -26.1654 2.40265 0.0462048 0.000530889 0.662642 
35.8934 96.808 2.15035 -9.4209 -0.151164 -92.5883 -4.94261 -17.0771 -0.941561 1.2224 29.9712 22.5623 1.66121 -9.11541 0.0677666 -1.31817e-009 8.7524e-006 -1.4812e-008 2.3484 7.6721 2.03193 -0.399493 -0.0279008 2.28855 33.7268 1.74868 0.345385 50.6655 -23.1198 39.8372 18.4903 50.9596 -13.7119 -12.9552 9.43031 -0.991789 -36.2617 2.78296 -3.0593 -47.1588 -28.9858 -11.4503 -15.2329 50.8826 7.50575 5.82328 9.61819 -0.917488 -1.44503 1.32638 -4.40135 -0.88015 14.3471 -4.23851 -0.85405 38.6733 -9.82277 19.5039 -20.8314 2.07046 0.0462048 0.000530889 0.662642 
33.5068 96.7694 2.44712 -10.1934 -1.35153 -90.9989 -7.12173 -15.5942 -1.60362 1.21821 31.4927 21.6345 2.78756 -10.5105 0.116705 -1.31817e-009 8.7524e-006 -1.4812e-008 -2.98409 9.50113 1.10956 3.5098 -0.57801 0.2417 36.5795 1.78947 0.177422 45.7303 -27.4485 25.8946 18.2765 51.7098 -14.2724 -12.1092 9.5371 -1.78646 -34.7642 2.62702 -2.92389 -54.3123 -24.758 -27.7475 -16.4318 54.1256 7.94655 5.82328 9.61819 -0.917488 -1.66621 -0.0897283 -3.00979 -2.96062 7.39544 -3.24246 -1.19306 54.2844 -10.2448 18.4436 -11.4776 0.458301 0.0462048 0.000530889 0.662642 
31.4919 96.6253 2.67023 -10.9513 -2.85882 -90.9434 -8.82825 -13.7531 -1.58735 1.24722 32.2768 22.0293 2.37866 -12.6018 0.165116 -1.31817e-009 8.7524e-006 -1.4812e-008 -8.04428 11.7814 0.771851 6.50371 -0.780621 -1.4795 38.2551 1.81265 0.0857408 39.5927 -30.5193 11.6714 18.2445 54.461 -14.6361 -9.75843 9.66657 -2.4928 -32.4577 2.39167 -2.70227 -58.494 -20.6147 -42.0233 -14.6168 53.9092 4.67872 5.82328 9.61819 -0.917488 -1.9205 -1.62255 -0.59369 -4.8149 -1.50021 -1.10682 -2.12266 70.4156 -10.2609 15.5077 -4.56512 -0.585254 0.0462048 0.000530889 0.662642 
